<svg width="960" height="533" viewBox="0 0 960 533" fill="none" xmlns="http://www.w3.org/2000/svg">
<rect width="960" height="532.802" rx="4" fill="white"/>
<path d="M313.818 74.7227C315.661 74.7227 317.005 75.1198 317.852 75.9141C318.698 76.7018 319.121 77.7891 319.121 79.1758C319.121 79.8008 319.027 80.3997 318.838 80.9727C318.649 81.5391 318.34 82.0436 317.91 82.4863C317.487 82.929 316.921 83.2806 316.211 83.541C315.501 83.7949 314.626 83.9219 313.584 83.9219H312.285V89H309.258V74.7227H313.818ZM313.662 77.2031H312.285V81.4414H313.281C313.848 81.4414 314.339 81.3665 314.756 81.2168C315.173 81.0671 315.495 80.8327 315.723 80.5137C315.951 80.1947 316.064 79.7845 316.064 79.2832C316.064 78.5801 315.869 78.0592 315.479 77.7207C315.088 77.3757 314.482 77.2031 313.662 77.2031ZM326.055 77.8574C327.52 77.8574 328.643 78.1764 329.424 78.8145C330.205 79.4525 330.596 80.4225 330.596 81.7246V89H328.516L327.939 87.5156H327.861C327.549 87.9062 327.23 88.2253 326.904 88.4727C326.579 88.7201 326.204 88.9023 325.781 89.0195C325.358 89.1367 324.844 89.1953 324.238 89.1953C323.594 89.1953 323.014 89.0716 322.5 88.8242C321.992 88.5768 321.592 88.1992 321.299 87.6914C321.006 87.1771 320.859 86.526 320.859 85.7383C320.859 84.5794 321.266 83.7266 322.08 83.1797C322.894 82.6263 324.115 82.3203 325.742 82.2617L327.637 82.2031V81.7246C327.637 81.1517 327.487 80.7318 327.188 80.4648C326.888 80.1979 326.471 80.0645 325.938 80.0645C325.41 80.0645 324.893 80.1393 324.385 80.2891C323.877 80.4388 323.369 80.6276 322.861 80.8555L321.875 78.8438C322.454 78.5378 323.102 78.2969 323.818 78.1211C324.541 77.9453 325.286 77.8574 326.055 77.8574ZM327.637 83.9414L326.484 83.9805C325.521 84.0065 324.85 84.179 324.473 84.498C324.102 84.8171 323.916 85.237 323.916 85.7578C323.916 86.2135 324.049 86.5391 324.316 86.7344C324.583 86.9232 324.932 87.0176 325.361 87.0176C325.999 87.0176 326.536 86.8288 326.973 86.4512C327.415 86.0736 327.637 85.5365 327.637 84.8398V83.9414ZM339.766 77.877C339.915 77.877 340.088 77.8867 340.283 77.9062C340.485 77.9193 340.648 77.9388 340.771 77.9648L340.547 80.7578C340.449 80.7253 340.309 80.7025 340.127 80.6895C339.951 80.6699 339.798 80.6602 339.668 80.6602C339.284 80.6602 338.91 80.709 338.545 80.8066C338.187 80.9043 337.865 81.0638 337.578 81.2852C337.292 81.5 337.064 81.7865 336.895 82.1445C336.732 82.4961 336.65 82.929 336.65 83.4434V89H333.672V78.082H335.928L336.367 79.918H336.514C336.729 79.5469 336.995 79.2083 337.314 78.9023C337.64 78.5898 338.008 78.3424 338.418 78.1602C338.835 77.9714 339.284 77.877 339.766 77.877ZM347.256 77.877C348.265 77.877 349.134 78.0723 349.863 78.4629C350.592 78.847 351.156 79.4069 351.553 80.1426C351.95 80.8783 352.148 81.7767 352.148 82.8379V84.2832H345.107C345.14 85.123 345.391 85.7839 345.859 86.2656C346.335 86.7409 346.992 86.9785 347.832 86.9785C348.529 86.9785 349.167 86.9069 349.746 86.7637C350.326 86.6204 350.921 86.4056 351.533 86.1191V88.4238C350.993 88.6908 350.426 88.8861 349.834 89.0098C349.248 89.1335 348.535 89.1953 347.695 89.1953C346.602 89.1953 345.632 88.9935 344.785 88.5898C343.945 88.1862 343.285 87.571 342.803 86.7441C342.327 85.9173 342.09 84.8757 342.09 83.6191C342.09 82.3431 342.305 81.2819 342.734 80.4355C343.171 79.5827 343.776 78.9447 344.551 78.5215C345.326 78.0918 346.227 77.877 347.256 77.877ZM347.275 79.9961C346.696 79.9961 346.214 80.1816 345.83 80.5527C345.452 80.9238 345.234 81.5065 345.176 82.3008H349.355C349.349 81.8581 349.268 81.4642 349.111 81.1191C348.962 80.7741 348.734 80.5007 348.428 80.2988C348.128 80.097 347.744 79.9961 347.275 79.9961ZM359.004 89.1953C357.923 89.1953 357.002 89 356.24 88.6094C355.479 88.2122 354.899 87.6003 354.502 86.7734C354.105 85.9466 353.906 84.8887 353.906 83.5996C353.906 82.265 354.131 81.1777 354.58 80.3379C355.036 79.4915 355.664 78.8698 356.465 78.4727C357.272 78.0755 358.206 77.877 359.268 77.877C360.023 77.877 360.674 77.9518 361.221 78.1016C361.774 78.2448 362.256 78.4173 362.666 78.6191L361.787 80.9238C361.318 80.735 360.882 80.582 360.479 80.4648C360.075 80.3411 359.671 80.2793 359.268 80.2793C358.747 80.2793 358.314 80.403 357.969 80.6504C357.624 80.8913 357.367 81.2559 357.197 81.7441C357.028 82.2324 356.943 82.8444 356.943 83.5801C356.943 84.3027 357.035 84.9017 357.217 85.377C357.399 85.8522 357.663 86.207 358.008 86.4414C358.353 86.6693 358.773 86.7832 359.268 86.7832C359.886 86.7832 360.436 86.7018 360.918 86.5391C361.4 86.3698 361.868 86.1354 362.324 85.8359V88.3848C361.868 88.6712 361.39 88.8763 360.889 89C360.394 89.1302 359.766 89.1953 359.004 89.1953ZM369.365 77.877C370.374 77.877 371.243 78.0723 371.973 78.4629C372.702 78.847 373.265 79.4069 373.662 80.1426C374.059 80.8783 374.258 81.7767 374.258 82.8379V84.2832H367.217C367.249 85.123 367.5 85.7839 367.969 86.2656C368.444 86.7409 369.102 86.9785 369.941 86.9785C370.638 86.9785 371.276 86.9069 371.855 86.7637C372.435 86.6204 373.031 86.4056 373.643 86.1191V88.4238C373.102 88.6908 372.536 88.8861 371.943 89.0098C371.357 89.1335 370.645 89.1953 369.805 89.1953C368.711 89.1953 367.741 88.9935 366.895 88.5898C366.055 88.1862 365.394 87.571 364.912 86.7441C364.437 85.9173 364.199 84.8757 364.199 83.6191C364.199 82.3431 364.414 81.2819 364.844 80.4355C365.28 79.5827 365.885 78.9447 366.66 78.5215C367.435 78.0918 368.337 77.877 369.365 77.877ZM369.385 79.9961C368.805 79.9961 368.324 80.1816 367.939 80.5527C367.562 80.9238 367.344 81.5065 367.285 82.3008H371.465C371.458 81.8581 371.377 81.4642 371.221 81.1191C371.071 80.7741 370.843 80.5007 370.537 80.2988C370.238 80.097 369.854 79.9961 369.385 79.9961ZM388.428 93.8047V89.2246C388.428 88.9512 388.438 88.6777 388.457 88.4043C388.483 88.1243 388.516 87.8509 388.555 87.584H388.428C388.148 88.0332 387.76 88.4141 387.266 88.7266C386.777 89.0391 386.133 89.1953 385.332 89.1953C384.102 89.1953 383.105 88.7201 382.344 87.7695C381.589 86.8125 381.211 85.4095 381.211 83.5605C381.211 82.3171 381.387 81.2754 381.738 80.4355C382.09 79.5892 382.578 78.9512 383.203 78.5215C383.835 78.0918 384.564 77.877 385.391 77.877C386.191 77.877 386.839 78.0332 387.334 78.3457C387.835 78.6517 388.242 79.0293 388.555 79.4785H388.633L388.896 78.082H391.416V93.8047H388.428ZM386.396 86.8613C386.943 86.8613 387.376 86.7539 387.695 86.5391C388.021 86.3242 388.255 86.002 388.398 85.5723C388.542 85.1361 388.62 84.5924 388.633 83.9414V83.5801C388.633 82.5189 388.47 81.7083 388.145 81.1484C387.819 80.582 387.22 80.2988 386.348 80.2988C385.638 80.2988 385.111 80.582 384.766 81.1484C384.421 81.7148 384.248 82.5319 384.248 83.5996C384.248 84.6868 384.424 85.5039 384.775 86.0508C385.127 86.5911 385.667 86.8613 386.396 86.8613ZM404.551 78.082V89H402.266L401.865 87.6035H401.709C401.475 87.9746 401.182 88.2773 400.83 88.5117C400.479 88.7461 400.091 88.9186 399.668 89.0293C399.245 89.14 398.805 89.1953 398.35 89.1953C397.568 89.1953 396.888 89.0586 396.309 88.7852C395.729 88.5052 395.277 88.0723 394.951 87.4863C394.632 86.9004 394.473 86.1387 394.473 85.2012V78.082H397.451V84.459C397.451 85.2402 397.591 85.8294 397.871 86.2266C398.151 86.6237 398.597 86.8223 399.209 86.8223C399.814 86.8223 400.29 86.6855 400.635 86.4121C400.98 86.1322 401.221 85.7253 401.357 85.1914C401.501 84.651 401.572 83.9935 401.572 83.2188V78.082H404.551ZM412.178 77.877C413.187 77.877 414.056 78.0723 414.785 78.4629C415.514 78.847 416.077 79.4069 416.475 80.1426C416.872 80.8783 417.07 81.7767 417.07 82.8379V84.2832H410.029C410.062 85.123 410.312 85.7839 410.781 86.2656C411.257 86.7409 411.914 86.9785 412.754 86.9785C413.451 86.9785 414.089 86.9069 414.668 86.7637C415.247 86.6204 415.843 86.4056 416.455 86.1191V88.4238C415.915 88.6908 415.348 88.8861 414.756 89.0098C414.17 89.1335 413.457 89.1953 412.617 89.1953C411.523 89.1953 410.553 88.9935 409.707 88.5898C408.867 88.1862 408.206 87.571 407.725 86.7441C407.249 85.9173 407.012 84.8757 407.012 83.6191C407.012 82.3431 407.227 81.2819 407.656 80.4355C408.092 79.5827 408.698 78.9447 409.473 78.5215C410.247 78.0918 411.149 77.877 412.178 77.877ZM412.197 79.9961C411.618 79.9961 411.136 80.1816 410.752 80.5527C410.374 80.9238 410.156 81.5065 410.098 82.3008H414.277C414.271 81.8581 414.189 81.4642 414.033 81.1191C413.883 80.7741 413.656 80.5007 413.35 80.2988C413.05 80.097 412.666 79.9961 412.197 79.9961ZM430.889 77.877C432.054 77.877 432.992 78.196 433.701 78.834C434.411 79.4655 434.766 80.4811 434.766 81.8809V89H431.787V82.623C431.787 81.8418 431.644 81.2526 431.357 80.8555C431.077 80.4583 430.635 80.2598 430.029 80.2598C429.118 80.2598 428.496 80.569 428.164 81.1875C427.832 81.806 427.666 82.6979 427.666 83.8633V89H424.688V78.082H426.963L427.363 79.4785H427.529C427.764 79.1009 428.053 78.7949 428.398 78.5605C428.75 78.3262 429.137 78.1536 429.561 78.043C429.99 77.9323 430.433 77.877 430.889 77.877ZM442.305 77.8574C443.77 77.8574 444.893 78.1764 445.674 78.8145C446.455 79.4525 446.846 80.4225 446.846 81.7246V89H444.766L444.189 87.5156H444.111C443.799 87.9062 443.48 88.2253 443.154 88.4727C442.829 88.7201 442.454 88.9023 442.031 89.0195C441.608 89.1367 441.094 89.1953 440.488 89.1953C439.844 89.1953 439.264 89.0716 438.75 88.8242C438.242 88.5768 437.842 88.1992 437.549 87.6914C437.256 87.1771 437.109 86.526 437.109 85.7383C437.109 84.5794 437.516 83.7266 438.33 83.1797C439.144 82.6263 440.365 82.3203 441.992 82.2617L443.887 82.2031V81.7246C443.887 81.1517 443.737 80.7318 443.438 80.4648C443.138 80.1979 442.721 80.0645 442.188 80.0645C441.66 80.0645 441.143 80.1393 440.635 80.2891C440.127 80.4388 439.619 80.6276 439.111 80.8555L438.125 78.8438C438.704 78.5378 439.352 78.2969 440.068 78.1211C440.791 77.9453 441.536 77.8574 442.305 77.8574ZM443.887 83.9414L442.734 83.9805C441.771 84.0065 441.1 84.179 440.723 84.498C440.352 84.8171 440.166 85.237 440.166 85.7578C440.166 86.2135 440.299 86.5391 440.566 86.7344C440.833 86.9232 441.182 87.0176 441.611 87.0176C442.249 87.0176 442.786 86.8288 443.223 86.4512C443.665 86.0736 443.887 85.5365 443.887 84.8398V83.9414ZM438.252 76.9004C438.291 76.3796 438.385 75.9303 438.535 75.5527C438.685 75.1686 438.88 74.8561 439.121 74.6152C439.362 74.3678 439.632 74.1855 439.932 74.0684C440.238 73.9447 440.563 73.8828 440.908 73.8828C441.175 73.8828 441.436 73.9349 441.689 74.0391C441.95 74.1367 442.204 74.2539 442.451 74.3906C442.705 74.5273 442.952 74.6478 443.193 74.752C443.441 74.8496 443.682 74.8984 443.916 74.8984C444.111 74.8984 444.3 74.8138 444.482 74.6445C444.671 74.4688 444.808 74.2083 444.893 73.8633H446.348C446.27 74.8919 445.977 75.6536 445.469 76.1484C444.961 76.6367 444.368 76.8809 443.691 76.8809C443.424 76.8809 443.161 76.8288 442.9 76.7246C442.646 76.6204 442.393 76.5033 442.139 76.373C441.891 76.2363 441.647 76.1159 441.406 76.0117C441.165 75.9076 440.928 75.8555 440.693 75.8555C440.492 75.8555 440.296 75.9434 440.107 76.1191C439.925 76.2884 439.792 76.5488 439.707 76.9004H438.252ZM459.844 83.5215C459.844 84.4329 459.72 85.2402 459.473 85.9434C459.232 86.6465 458.877 87.2422 458.408 87.7305C457.946 88.2122 457.386 88.5768 456.729 88.8242C456.077 89.0716 455.342 89.1953 454.521 89.1953C453.753 89.1953 453.047 89.0716 452.402 88.8242C451.764 88.5768 451.208 88.2122 450.732 87.7305C450.264 87.2422 449.899 86.6465 449.639 85.9434C449.385 85.2402 449.258 84.4329 449.258 83.5215C449.258 82.3105 449.473 81.2852 449.902 80.4453C450.332 79.6055 450.944 78.9674 451.738 78.5312C452.533 78.0951 453.48 77.877 454.58 77.877C455.602 77.877 456.507 78.0951 457.295 78.5312C458.089 78.9674 458.711 79.6055 459.16 80.4453C459.616 81.2852 459.844 82.3105 459.844 83.5215ZM452.295 83.5215C452.295 84.2376 452.373 84.8398 452.529 85.3281C452.686 85.8164 452.93 86.1842 453.262 86.4316C453.594 86.679 454.027 86.8027 454.561 86.8027C455.088 86.8027 455.514 86.679 455.84 86.4316C456.172 86.1842 456.413 85.8164 456.562 85.3281C456.719 84.8398 456.797 84.2376 456.797 83.5215C456.797 82.7988 456.719 82.1999 456.562 81.7246C456.413 81.2428 456.172 80.8815 455.84 80.6406C455.508 80.3997 455.075 80.2793 454.541 80.2793C453.753 80.2793 453.18 80.5495 452.822 81.0898C452.471 81.6302 452.295 82.4408 452.295 83.5215ZM470.479 73.8047V76.9004C470.479 77.4408 470.459 77.9551 470.42 78.4434C470.387 78.9316 470.361 79.2767 470.342 79.4785H470.498C470.732 79.1009 471.009 78.7949 471.328 78.5605C471.654 78.3262 472.012 78.1536 472.402 78.043C472.793 77.9323 473.213 77.877 473.662 77.877C474.45 77.877 475.137 78.0169 475.723 78.2969C476.309 78.5703 476.764 79.0033 477.09 79.5957C477.415 80.1816 477.578 80.9434 477.578 81.8809V89H474.6V82.623C474.6 81.8418 474.456 81.2526 474.17 80.8555C473.883 80.4583 473.441 80.2598 472.842 80.2598C472.243 80.2598 471.771 80.3997 471.426 80.6797C471.081 80.9531 470.837 81.36 470.693 81.9004C470.55 82.4342 470.479 83.0885 470.479 83.8633V89H467.5V73.8047H470.479ZM485.117 77.8574C486.582 77.8574 487.705 78.1764 488.486 78.8145C489.268 79.4525 489.658 80.4225 489.658 81.7246V89H487.578L487.002 87.5156H486.924C486.611 87.9062 486.292 88.2253 485.967 88.4727C485.641 88.7201 485.267 88.9023 484.844 89.0195C484.421 89.1367 483.906 89.1953 483.301 89.1953C482.656 89.1953 482.077 89.0716 481.562 88.8242C481.055 88.5768 480.654 88.1992 480.361 87.6914C480.068 87.1771 479.922 86.526 479.922 85.7383C479.922 84.5794 480.329 83.7266 481.143 83.1797C481.956 82.6263 483.177 82.3203 484.805 82.2617L486.699 82.2031V81.7246C486.699 81.1517 486.549 80.7318 486.25 80.4648C485.951 80.1979 485.534 80.0645 485 80.0645C484.473 80.0645 483.955 80.1393 483.447 80.2891C482.939 80.4388 482.432 80.6276 481.924 80.8555L480.938 78.8438C481.517 78.5378 482.165 78.2969 482.881 78.1211C483.604 77.9453 484.349 77.8574 485.117 77.8574ZM486.699 83.9414L485.547 83.9805C484.583 84.0065 483.913 84.179 483.535 84.498C483.164 84.8171 482.979 85.237 482.979 85.7578C482.979 86.2135 483.112 86.5391 483.379 86.7344C483.646 86.9232 483.994 87.0176 484.424 87.0176C485.062 87.0176 485.599 86.8288 486.035 86.4512C486.478 86.0736 486.699 85.5365 486.699 84.8398V83.9414ZM488.955 73.6777V73.8828C488.766 74.0651 488.519 74.2897 488.213 74.5566C487.907 74.8236 487.578 75.1035 487.227 75.3965C486.875 75.6829 486.53 75.9596 486.191 76.2266C485.853 76.487 485.557 76.7051 485.303 76.8809H483.32V76.6172C483.535 76.3698 483.783 76.0768 484.062 75.7383C484.349 75.3932 484.632 75.0384 484.912 74.6738C485.192 74.3092 485.426 73.9772 485.615 73.6777H488.955ZM504.131 77.877C505.296 77.877 506.234 78.196 506.943 78.834C507.653 79.4655 508.008 80.4811 508.008 81.8809V89H505.029V82.623C505.029 81.8418 504.886 81.2526 504.6 80.8555C504.32 80.4583 503.877 80.2598 503.271 80.2598C502.36 80.2598 501.738 80.569 501.406 81.1875C501.074 81.806 500.908 82.6979 500.908 83.8633V89H497.93V78.082H500.205L500.605 79.4785H500.771C501.006 79.1009 501.296 78.7949 501.641 78.5605C501.992 78.3262 502.38 78.1536 502.803 78.043C503.232 77.9323 503.675 77.877 504.131 77.877ZM515.547 77.8574C517.012 77.8574 518.135 78.1764 518.916 78.8145C519.697 79.4525 520.088 80.4225 520.088 81.7246V89H518.008L517.432 87.5156H517.354C517.041 87.9062 516.722 88.2253 516.396 88.4727C516.071 88.7201 515.697 88.9023 515.273 89.0195C514.85 89.1367 514.336 89.1953 513.73 89.1953C513.086 89.1953 512.507 89.0716 511.992 88.8242C511.484 88.5768 511.084 88.1992 510.791 87.6914C510.498 87.1771 510.352 86.526 510.352 85.7383C510.352 84.5794 510.758 83.7266 511.572 83.1797C512.386 82.6263 513.607 82.3203 515.234 82.2617L517.129 82.2031V81.7246C517.129 81.1517 516.979 80.7318 516.68 80.4648C516.38 80.1979 515.964 80.0645 515.43 80.0645C514.902 80.0645 514.385 80.1393 513.877 80.2891C513.369 80.4388 512.861 80.6276 512.354 80.8555L511.367 78.8438C511.947 78.5378 512.594 78.2969 513.311 78.1211C514.033 77.9453 514.779 77.8574 515.547 77.8574ZM517.129 83.9414L515.977 83.9805C515.013 84.0065 514.342 84.179 513.965 84.498C513.594 84.8171 513.408 85.237 513.408 85.7578C513.408 86.2135 513.542 86.5391 513.809 86.7344C514.076 86.9232 514.424 87.0176 514.854 87.0176C515.492 87.0176 516.029 86.8288 516.465 86.4512C516.908 86.0736 517.129 85.5365 517.129 84.8398V83.9414ZM526.621 89.1953C525.404 89.1953 524.411 88.7201 523.643 87.7695C522.881 86.8125 522.5 85.4095 522.5 83.5605C522.5 81.6921 522.887 80.2793 523.662 79.3223C524.437 78.3587 525.449 77.877 526.699 77.877C527.22 77.877 527.679 77.9486 528.076 78.0918C528.473 78.235 528.815 78.4271 529.102 78.668C529.395 78.9089 529.642 79.179 529.844 79.4785H529.941C529.902 79.2702 529.854 78.9642 529.795 78.5605C529.743 78.1504 529.717 77.7305 529.717 77.3008V73.8047H532.705V89H530.42L529.844 87.584H529.717C529.528 87.8835 529.29 88.1569 529.004 88.4043C528.724 88.6452 528.389 88.8372 527.998 88.9805C527.607 89.1237 527.148 89.1953 526.621 89.1953ZM527.666 86.8223C528.48 86.8223 529.053 86.5814 529.385 86.0996C529.723 85.6113 529.902 84.8789 529.922 83.9023V83.5801C529.922 82.5189 529.759 81.7083 529.434 81.1484C529.108 80.582 528.503 80.2988 527.617 80.2988C526.96 80.2988 526.445 80.582 526.074 81.1484C525.703 81.7148 525.518 82.5319 525.518 83.5996C525.518 84.6673 525.703 85.4714 526.074 86.0117C526.452 86.5521 526.982 86.8223 527.666 86.8223ZM540.293 77.8574C541.758 77.8574 542.881 78.1764 543.662 78.8145C544.443 79.4525 544.834 80.4225 544.834 81.7246V89H542.754L542.178 87.5156H542.1C541.787 87.9062 541.468 88.2253 541.143 88.4727C540.817 88.7201 540.443 88.9023 540.02 89.0195C539.596 89.1367 539.082 89.1953 538.477 89.1953C537.832 89.1953 537.253 89.0716 536.738 88.8242C536.23 88.5768 535.83 88.1992 535.537 87.6914C535.244 87.1771 535.098 86.526 535.098 85.7383C535.098 84.5794 535.505 83.7266 536.318 83.1797C537.132 82.6263 538.353 82.3203 539.98 82.2617L541.875 82.2031V81.7246C541.875 81.1517 541.725 80.7318 541.426 80.4648C541.126 80.1979 540.71 80.0645 540.176 80.0645C539.648 80.0645 539.131 80.1393 538.623 80.2891C538.115 80.4388 537.607 80.6276 537.1 80.8555L536.113 78.8438C536.693 78.5378 537.34 78.2969 538.057 78.1211C538.779 77.9453 539.525 77.8574 540.293 77.8574ZM541.875 83.9414L540.723 83.9805C539.759 84.0065 539.089 84.179 538.711 84.498C538.34 84.8171 538.154 85.237 538.154 85.7578C538.154 86.2135 538.288 86.5391 538.555 86.7344C538.822 86.9232 539.17 87.0176 539.6 87.0176C540.238 87.0176 540.775 86.8288 541.211 86.4512C541.654 86.0736 541.875 85.5365 541.875 84.8398V83.9414ZM559.18 77.877C560.41 77.877 561.403 78.3555 562.158 79.3125C562.92 80.2695 563.301 81.6725 563.301 83.5215C563.301 84.7585 563.122 85.8001 562.764 86.6465C562.406 87.4863 561.911 88.1211 561.279 88.5508C560.648 88.9805 559.922 89.1953 559.102 89.1953C558.574 89.1953 558.122 89.1302 557.744 89C557.367 88.8633 557.044 88.6908 556.777 88.4824C556.51 88.2676 556.279 88.0397 556.084 87.7988H555.928C555.98 88.0592 556.019 88.3262 556.045 88.5996C556.071 88.873 556.084 89.14 556.084 89.4004V93.8047H553.105V78.082H555.527L555.947 79.498H556.084C556.279 79.2051 556.517 78.9349 556.797 78.6875C557.077 78.4401 557.412 78.2448 557.803 78.1016C558.2 77.9518 558.659 77.877 559.18 77.877ZM558.223 80.2598C557.702 80.2598 557.288 80.3672 556.982 80.582C556.676 80.7969 556.452 81.1191 556.309 81.5488C556.172 81.9785 556.097 82.5221 556.084 83.1797V83.502C556.084 84.2051 556.149 84.8008 556.279 85.2891C556.416 85.7773 556.641 86.1484 556.953 86.4023C557.272 86.6562 557.708 86.7832 558.262 86.7832C558.717 86.7832 559.092 86.6562 559.385 86.4023C559.678 86.1484 559.896 85.7773 560.039 85.2891C560.189 84.7943 560.264 84.1921 560.264 83.4824C560.264 82.4147 560.098 81.6107 559.766 81.0703C559.434 80.5299 558.919 80.2598 558.223 80.2598ZM575.684 83.5215C575.684 84.4329 575.56 85.2402 575.312 85.9434C575.072 86.6465 574.717 87.2422 574.248 87.7305C573.786 88.2122 573.226 88.5768 572.568 88.8242C571.917 89.0716 571.182 89.1953 570.361 89.1953C569.593 89.1953 568.887 89.0716 568.242 88.8242C567.604 88.5768 567.048 88.2122 566.572 87.7305C566.104 87.2422 565.739 86.6465 565.479 85.9434C565.225 85.2402 565.098 84.4329 565.098 83.5215C565.098 82.3105 565.312 81.2852 565.742 80.4453C566.172 79.6055 566.784 78.9674 567.578 78.5312C568.372 78.0951 569.32 77.877 570.42 77.877C571.442 77.877 572.347 78.0951 573.135 78.5312C573.929 78.9674 574.551 79.6055 575 80.4453C575.456 81.2852 575.684 82.3105 575.684 83.5215ZM568.135 83.5215C568.135 84.2376 568.213 84.8398 568.369 85.3281C568.525 85.8164 568.77 86.1842 569.102 86.4316C569.434 86.679 569.867 86.8027 570.4 86.8027C570.928 86.8027 571.354 86.679 571.68 86.4316C572.012 86.1842 572.253 85.8164 572.402 85.3281C572.559 84.8398 572.637 84.2376 572.637 83.5215C572.637 82.7988 572.559 82.1999 572.402 81.7246C572.253 81.2428 572.012 80.8815 571.68 80.6406C571.348 80.3997 570.915 80.2793 570.381 80.2793C569.593 80.2793 569.02 80.5495 568.662 81.0898C568.311 81.6302 568.135 82.4408 568.135 83.5215ZM584.238 77.877C584.388 77.877 584.561 77.8867 584.756 77.9062C584.958 77.9193 585.12 77.9388 585.244 77.9648L585.02 80.7578C584.922 80.7253 584.782 80.7025 584.6 80.6895C584.424 80.6699 584.271 80.6602 584.141 80.6602C583.757 80.6602 583.382 80.709 583.018 80.8066C582.66 80.9043 582.337 81.0638 582.051 81.2852C581.764 81.5 581.536 81.7865 581.367 82.1445C581.204 82.4961 581.123 82.929 581.123 83.4434V89H578.145V78.082H580.4L580.84 79.918H580.986C581.201 79.5469 581.468 79.2083 581.787 78.9023C582.113 78.5898 582.48 78.3424 582.891 78.1602C583.307 77.9714 583.757 77.877 584.238 77.877ZM596.895 77.8574C598.359 77.8574 599.482 78.1764 600.264 78.8145C601.045 79.4525 601.436 80.4225 601.436 81.7246V89H599.355L598.779 87.5156H598.701C598.389 87.9062 598.07 88.2253 597.744 88.4727C597.419 88.7201 597.044 88.9023 596.621 89.0195C596.198 89.1367 595.684 89.1953 595.078 89.1953C594.434 89.1953 593.854 89.0716 593.34 88.8242C592.832 88.5768 592.432 88.1992 592.139 87.6914C591.846 87.1771 591.699 86.526 591.699 85.7383C591.699 84.5794 592.106 83.7266 592.92 83.1797C593.734 82.6263 594.954 82.3203 596.582 82.2617L598.477 82.2031V81.7246C598.477 81.1517 598.327 80.7318 598.027 80.4648C597.728 80.1979 597.311 80.0645 596.777 80.0645C596.25 80.0645 595.732 80.1393 595.225 80.2891C594.717 80.4388 594.209 80.6276 593.701 80.8555L592.715 78.8438C593.294 78.5378 593.942 78.2969 594.658 78.1211C595.381 77.9453 596.126 77.8574 596.895 77.8574ZM598.477 83.9414L597.324 83.9805C596.361 84.0065 595.69 84.179 595.312 84.498C594.941 84.8171 594.756 85.237 594.756 85.7578C594.756 86.2135 594.889 86.5391 595.156 86.7344C595.423 86.9232 595.771 87.0176 596.201 87.0176C596.839 87.0176 597.376 86.8288 597.812 86.4512C598.255 86.0736 598.477 85.5365 598.477 84.8398V83.9414ZM611.064 93.8047V89.2246C611.064 88.9512 611.074 88.6777 611.094 88.4043C611.12 88.1243 611.152 87.8509 611.191 87.584H611.064C610.785 88.0332 610.397 88.4141 609.902 88.7266C609.414 89.0391 608.77 89.1953 607.969 89.1953C606.738 89.1953 605.742 88.7201 604.98 87.7695C604.225 86.8125 603.848 85.4095 603.848 83.5605C603.848 82.3171 604.023 81.2754 604.375 80.4355C604.727 79.5892 605.215 78.9512 605.84 78.5215C606.471 78.0918 607.201 77.877 608.027 77.877C608.828 77.877 609.476 78.0332 609.971 78.3457C610.472 78.6517 610.879 79.0293 611.191 79.4785H611.27L611.533 78.082H614.053V93.8047H611.064ZM609.033 86.8613C609.58 86.8613 610.013 86.7539 610.332 86.5391C610.658 86.3242 610.892 86.002 611.035 85.5723C611.178 85.1361 611.257 84.5924 611.27 83.9414V83.5801C611.27 82.5189 611.107 81.7083 610.781 81.1484C610.456 80.582 609.857 80.2988 608.984 80.2988C608.275 80.2988 607.747 80.582 607.402 81.1484C607.057 81.7148 606.885 82.5319 606.885 83.5996C606.885 84.6868 607.061 85.5039 607.412 86.0508C607.764 86.5911 608.304 86.8613 609.033 86.8613ZM627.188 78.082V89H624.902L624.502 87.6035H624.346C624.111 87.9746 623.818 88.2773 623.467 88.5117C623.115 88.7461 622.728 88.9186 622.305 89.0293C621.882 89.14 621.442 89.1953 620.986 89.1953C620.205 89.1953 619.525 89.0586 618.945 88.7852C618.366 88.5052 617.913 88.0723 617.588 87.4863C617.269 86.9004 617.109 86.1387 617.109 85.2012V78.082H620.088V84.459C620.088 85.2402 620.228 85.8294 620.508 86.2266C620.788 86.6237 621.234 86.8223 621.846 86.8223C622.451 86.8223 622.926 86.6855 623.271 86.4121C623.617 86.1322 623.857 85.7253 623.994 85.1914C624.137 84.651 624.209 83.9935 624.209 83.2188V78.082H627.188ZM633.291 78.082V89H630.312V78.082H633.291ZM631.807 73.8047C632.249 73.8047 632.63 73.9089 632.949 74.1172C633.268 74.319 633.428 74.6999 633.428 75.2598C633.428 75.8132 633.268 76.1973 632.949 76.4121C632.63 76.6204 632.249 76.7246 631.807 76.7246C631.357 76.7246 630.973 76.6204 630.654 76.4121C630.342 76.1973 630.186 75.8132 630.186 75.2598C630.186 74.6999 630.342 74.319 630.654 74.1172C630.973 73.9089 631.357 73.8047 631.807 73.8047ZM641.201 87.6035C641.201 86.9915 641.367 86.5618 641.699 86.3145C642.038 86.0671 642.445 85.9434 642.92 85.9434C643.382 85.9434 643.779 86.0671 644.111 86.3145C644.45 86.5618 644.619 86.9915 644.619 87.6035C644.619 88.1895 644.45 88.6126 644.111 88.873C643.779 89.1335 643.382 89.2637 642.92 89.2637C642.445 89.2637 642.038 89.1335 641.699 88.873C641.367 88.6126 641.201 88.1895 641.201 87.6035ZM641.201 79.5371C641.201 78.9251 641.367 78.4954 641.699 78.248C642.038 78.0007 642.445 77.877 642.92 77.877C643.382 77.877 643.779 78.0007 644.111 78.248C644.45 78.4954 644.619 78.9251 644.619 79.5371C644.619 80.1296 644.45 80.556 644.111 80.8164C643.779 81.0703 643.382 81.1973 642.92 81.1973C642.445 81.1973 642.038 81.0703 641.699 80.8164C641.367 80.556 641.201 80.1296 641.201 79.5371ZM646.562 83.5215C646.562 82.4342 646.667 81.373 646.875 80.3379C647.083 79.2962 647.406 78.3034 647.842 77.3594C648.278 76.4089 648.831 75.5299 649.502 74.7227H651.943C651.032 75.9727 650.339 77.3529 649.863 78.8633C649.395 80.3737 649.16 81.9199 649.16 83.502C649.16 84.5306 649.264 85.556 649.473 86.5781C649.681 87.5938 649.99 88.5736 650.4 89.5176C650.817 90.4616 651.325 91.3438 651.924 92.1641H649.502C648.831 91.3828 648.278 90.5267 647.842 89.5957C647.406 88.6712 647.083 87.6979 646.875 86.6758C646.667 85.6471 646.562 84.5957 646.562 83.5215Z" fill="#2F2E41"/>
<path d="M574.518 252.335C571.016 231.375 552.765 215.402 530.777 215.402H440.856C418.877 215.402 400.629 231.362 397.115 252.31C396.709 254.705 396.5 257.169 396.5 259.68V337.89C396.5 340.401 396.709 342.861 397.115 345.256C399.912 361.945 412.065 375.471 428.011 380.276C432.076 381.503 436.389 382.164 440.856 382.164H530.777C535.243 382.164 539.556 381.503 543.622 380.276C559.572 375.467 571.729 361.933 574.518 345.231C574.919 342.844 575.128 340.393 575.128 337.89V259.68C575.128 257.178 574.919 254.723 574.518 252.335ZM538.386 380.276C535.914 380.715 533.373 380.945 530.777 380.945H440.856C438.26 380.945 435.719 380.715 433.246 380.276C413.056 376.69 397.726 359.077 397.726 337.89V311.93C397.726 238.575 457.293 216.626 530.777 216.626C554.597 216.626 573.907 235.902 573.907 259.68V337.89C516.082 345.615 558.577 376.69 538.386 380.276Z" fill="#3F3D56"/>
<path d="M503.71 274.421L507.169 296.868L557.907 289.961L553.007 263.735L503.71 274.421Z" fill="#009EDD"/>
<path d="M543.53 148.464H522.552V170.14H543.53V148.464Z" fill="#2F2E41"/>
<path d="M524.466 171.396L529.655 155.856H539.77L540.302 171.396H524.466Z" fill="#FFB6B6"/>
<path opacity="0.1" d="M524.466 171.396L529.655 155.856H539.77L540.302 171.396H524.466Z" fill="black"/>
<path d="M529.944 309.818L529.367 369.676L528.791 374.28V380.89L537.439 381.762L538.016 368.524C538.016 368.524 547.241 342.624 544.935 322.48C542.628 302.335 543.781 308.091 543.781 308.091L529.944 309.818Z" fill="#FFB6B6"/>
<path d="M535.434 314.518L514.157 370.484L513.017 374.983L510.608 381.14L502.234 378.812L506.521 366.272C506.521 366.272 507.366 338.796 516.856 320.869C526.345 302.942 523.173 307.885 523.173 307.885L535.434 314.518Z" fill="#FFB6B6"/>
<path d="M524.466 169.67L508.899 176.576L518.839 227.808L517.268 301.338L506.89 323.21C506.89 323.21 505.151 335.718 523.025 327.66C540.899 319.602 561.078 317.3 561.078 317.3L556.178 283.63L551.853 195.282L552.43 175.713L539.745 167.655L524.466 169.67V169.67Z" fill="#2F2E41"/>
<path d="M515.796 324.009L498.521 295.141L518.262 227.808L508.899 176.576L525.326 169.556C525.326 169.556 533.83 177.823 533.83 184.641C533.83 191.459 515.796 324.009 515.796 324.009Z" fill="#E6E6E6"/>
<path d="M553.273 318.253L537.592 183.787C537.394 182.089 537.684 180.37 538.429 178.831L542.916 169.556L560.502 174.562L553.433 229.534L572.322 283.63L553.273 318.253H553.273Z" fill="#E6E6E6"/>
<path d="M539.169 380.611C539.169 380.611 528.214 374.28 527.061 377.733C525.908 381.187 525.331 384.064 525.331 384.064C525.331 384.064 522.448 395 531.097 395C539.745 395 539.169 390.026 539.169 390.026V380.611Z" fill="#2F2E41"/>
<path d="M501.042 377.111C501.042 377.111 513.554 375.192 513.369 378.828C513.185 382.463 512.673 385.353 512.673 385.353C512.673 385.353 511.374 396.586 503.318 393.446C495.262 390.305 497.611 385.882 497.611 385.882L501.042 377.111Z" fill="#2F2E41"/>
<path d="M535.387 164.314C543.303 164.314 549.721 157.908 549.721 150.006C549.721 142.103 543.303 135.697 535.387 135.697C527.471 135.697 521.053 142.103 521.053 150.006C521.053 157.908 527.471 164.314 535.387 164.314Z" fill="#FFB6B6"/>
<path d="M546.839 137.255C546.171 133.727 542.544 131.341 538.96 131.042C535.376 130.743 531.865 132.094 528.638 133.677C526.45 134.751 524.296 135.961 522.524 137.633C520.752 139.304 519.375 141.487 519.057 143.9C518.945 144.754 518.959 145.645 518.609 146.432C518.172 147.415 517.233 148.083 516.667 148.998C515.651 150.639 516.118 153.026 517.677 154.165C515.717 154.999 513.702 155.869 512.208 157.386C510.713 158.902 509.85 161.244 510.67 163.207C510.961 163.902 511.44 164.51 511.688 165.221C512.159 166.57 511.711 168.104 510.876 169.265C510.04 170.425 508.861 171.286 507.703 172.126C510.68 172.709 513.718 173.162 516.738 172.891C519.759 172.619 522.791 171.562 524.978 169.465C527.165 167.368 528.369 164.133 527.584 161.209C526.983 158.968 525.301 157.005 525.302 154.686C525.303 152.903 526.307 151.295 527.277 149.798L533.63 139.989C534.011 139.401 534.413 138.793 535.015 138.433C536.039 137.821 537.367 138.09 538.447 138.598C539.526 139.106 540.512 139.835 541.663 140.15C544.013 140.792 546.738 139.316 547.479 137" fill="#2F2E41"/>
<path d="M538.372 166.354C537.177 167.508 535.456 167.88 533.861 168.348C532.265 168.816 530.569 169.552 529.851 171.049C529.147 172.517 529.658 174.38 530.823 175.518C531.989 176.656 533.682 177.135 535.312 177.113C536.942 177.09 538.531 176.613 540.064 176.059C544.256 174.545 548.226 172.421 551.811 169.775C549.489 169.134 547.97 166.427 548.635 164.116C549.175 162.236 550.829 160.924 551.954 159.323C553.891 156.565 554.213 152.93 553.572 149.623C552.931 146.316 551.42 143.251 549.926 140.231C549.454 139.277 548.97 138.306 548.233 137.536C547.496 136.767 546.453 136.215 545.392 136.326C543.631 136.509 542.507 138.438 542.495 140.205C542.483 141.971 543.26 143.632 543.849 145.298C544.455 147.015 544.877 148.834 544.714 150.648C544.578 152.167 544.024 153.647 543.13 154.884C542.439 155.839 541.559 156.641 540.808 157.549C540.227 158.252 539.712 159.047 539.56 159.945C539.282 161.579 540.242 163.233 539.979 164.869C539.701 166.599 537.877 167.924 536.143 167.656" fill="#2F2E41"/>
<path d="M494.534 366.198C521.601 366.198 543.543 344.295 543.543 317.276C543.543 290.257 521.601 268.353 494.534 268.353C467.468 268.353 445.526 290.257 445.526 317.276C445.526 344.295 467.468 366.198 494.534 366.198Z" fill="#009EDD"/>
<path d="M508.218 267.518C507.625 271.758 504.952 274.889 502.249 274.511C499.546 274.134 497.837 270.391 498.431 266.15C498.646 264.453 499.264 262.831 500.234 261.421L502.976 243.489L511.379 244.953L507.784 262.476C508.33 264.098 508.479 265.827 508.218 267.518Z" fill="#FFB6B6"/>
<path d="M515.529 175.713C515.529 175.713 506.881 172.835 505.728 183.195C504.574 193.555 503.421 206.217 503.421 206.217C503.421 206.217 498.232 218.304 500.538 224.635C502.845 230.966 506.881 226.552 502.845 231.925C498.809 237.298 499.371 254.974 499.371 254.974L512.358 254.322C512.358 254.322 519.565 206.793 519.565 205.642C519.565 204.491 515.529 175.713 515.529 175.713V175.713Z" fill="#E6E6E6"/>
<path d="M571.745 265.594C571.906 269.872 569.825 273.422 567.097 273.524C564.37 273.626 562.03 270.24 561.869 265.961C561.782 264.252 562.106 262.548 562.813 260.99L562.362 242.856L570.891 242.825L570.431 260.705C571.254 262.207 571.704 263.883 571.745 265.594V265.594Z" fill="#FFB6B6"/>
<path d="M558.431 175.519C558.431 175.519 567.129 172.796 568.097 183.174C569.064 193.553 569.991 212.565 569.991 212.565C569.991 212.565 574.963 224.743 572.544 231.032C570.124 237.321 566.168 232.835 570.107 238.279C574.046 243.723 572.633 259.074 572.633 259.074L559.659 258.19C559.659 258.19 553.839 212.853 553.86 211.702C553.88 210.551 558.431 175.519 558.431 175.519V175.519Z" fill="#E6E6E6"/>
<path d="M529.373 313.332H522.142C521.017 306.702 517.545 300.699 512.361 296.417C500.43 286.562 482.77 288.246 472.915 300.177C472.882 300.215 472.849 300.254 472.818 300.294C472.031 301.315 472.22 302.78 473.241 303.568C474.261 304.355 475.727 304.166 476.514 303.146C480.795 297.959 487.275 294.659 494.52 294.659C505.612 294.66 515.172 302.464 517.394 313.332H511.017C510.745 313.332 510.481 313.427 510.271 313.602C509.776 314.015 509.709 314.75 510.121 315.246L519.299 326.263C519.344 326.317 519.394 326.367 519.448 326.412C519.943 326.824 520.679 326.758 521.091 326.263L530.269 315.246C530.444 315.036 530.539 314.772 530.54 314.499C530.54 313.855 530.017 313.332 529.373 313.332V313.332Z" fill="white"/>
<path d="M515.799 332.432C514.778 331.645 513.313 331.834 512.525 332.854C509.13 336.966 504.429 339.791 499.205 340.861C486.571 343.447 474.232 335.302 471.645 322.668H478.022C478.667 322.668 479.189 322.145 479.189 321.501C479.189 321.228 479.093 320.964 478.918 320.754L469.741 309.737C469.328 309.242 468.592 309.175 468.097 309.588C468.043 309.633 467.993 309.683 467.948 309.737L458.77 320.754C458.358 321.25 458.425 321.985 458.92 322.398C459.13 322.573 459.394 322.668 459.667 322.668H466.898C468.023 329.298 471.494 335.301 476.679 339.583C488.61 349.438 506.27 347.754 516.124 335.823C516.158 335.785 516.19 335.746 516.221 335.706C517.009 334.685 516.82 333.22 515.799 332.432H515.799V332.432Z" fill="white"/>
<path d="M703.5 395.442H256.5V396.802H703.5V395.442Z" fill="#3F3D56"/>
<rect x="390" y="428.802" width="180" height="40" rx="4" fill="#009EDD"/>
<path d="M461.009 444.808L457.611 454.802H455.301L451.91 444.808H454.05L455.93 450.755C455.962 450.855 456.014 451.045 456.087 451.323C456.16 451.596 456.233 451.888 456.306 452.198C456.383 452.503 456.436 452.756 456.463 452.956C456.49 452.756 456.538 452.503 456.606 452.198C456.679 451.892 456.75 451.603 456.818 451.329C456.891 451.051 456.944 450.86 456.976 450.755L458.869 444.808H461.009ZM471.345 449.791C471.345 450.562 471.249 451.263 471.058 451.897C470.866 452.526 470.575 453.068 470.183 453.524C469.795 453.979 469.303 454.33 468.706 454.576C468.109 454.818 467.403 454.939 466.587 454.939C465.771 454.939 465.065 454.818 464.468 454.576C463.871 454.33 463.376 453.979 462.984 453.524C462.597 453.068 462.308 452.523 462.116 451.89C461.925 451.256 461.829 450.552 461.829 449.778C461.829 448.743 461.998 447.843 462.335 447.077C462.677 446.307 463.201 445.71 463.907 445.286C464.614 444.863 465.511 444.651 466.601 444.651C467.685 444.651 468.576 444.863 469.273 445.286C469.975 445.71 470.495 446.307 470.832 447.077C471.174 447.848 471.345 448.752 471.345 449.791ZM464.051 449.791C464.051 450.489 464.137 451.09 464.311 451.596C464.488 452.097 464.764 452.485 465.138 452.758C465.511 453.027 465.994 453.161 466.587 453.161C467.188 453.161 467.676 453.027 468.05 452.758C468.424 452.485 468.695 452.097 468.863 451.596C469.036 451.09 469.123 450.489 469.123 449.791C469.123 448.743 468.927 447.918 468.535 447.317C468.143 446.715 467.498 446.414 466.601 446.414C466.004 446.414 465.516 446.551 465.138 446.825C464.764 447.093 464.488 447.481 464.311 447.987C464.137 448.488 464.051 449.089 464.051 449.791ZM473.416 454.802V444.808H475.535V453.052H479.589V454.802H473.416ZM485.188 454.802H483.068V446.572H480.354V444.808H487.901V446.572H485.188V454.802ZM495.558 454.802L494.833 452.423H491.189L490.465 454.802H488.182L491.709 444.767H494.3L497.841 454.802H495.558ZM494.327 450.646L493.603 448.322C493.557 448.167 493.495 447.968 493.418 447.727C493.345 447.481 493.27 447.232 493.192 446.982C493.119 446.727 493.06 446.506 493.015 446.319C492.969 446.506 492.905 446.738 492.823 447.016C492.746 447.289 492.671 447.549 492.598 447.795C492.525 448.041 492.472 448.217 492.44 448.322L491.723 450.646H494.327ZM502.018 444.808C502.924 444.808 503.672 444.917 504.26 445.136C504.852 445.355 505.292 445.685 505.579 446.127C505.866 446.569 506.01 447.128 506.01 447.802C506.01 448.258 505.923 448.657 505.75 448.998C505.577 449.34 505.349 449.63 505.066 449.867C504.784 450.103 504.479 450.297 504.15 450.448L507.09 454.802H504.738L502.353 450.967H501.225V454.802H499.105V444.808H502.018ZM501.867 446.544H501.225V449.244H501.908C502.61 449.244 503.111 449.128 503.412 448.896C503.717 448.659 503.87 448.312 503.87 447.857C503.87 447.383 503.706 447.046 503.378 446.845C503.054 446.645 502.551 446.544 501.867 446.544Z" fill="white"/>
</svg>
